<?xml version="1.0" encoding="UTF-8" standalone="no"?>
<!-- Created with Inkscape (http://www.inkscape.org/) -->

<svg
   version="1.1"
   id="svg1"
   width="534.66669"
   height="172"
   viewBox="0 0 534.66669 172"
   sodipodi:docname="ass.pdf"
   xmlns:inkscape="http://www.inkscape.org/namespaces/inkscape"
   xmlns:sodipodi="http://sodipodi.sourceforge.net/DTD/sodipodi-0.dtd"
   xmlns="http://www.w3.org/2000/svg"
   xmlns:svg="http://www.w3.org/2000/svg">
  <defs
     id="defs1">
    <linearGradient
       x1="0"
       y1="0"
       x2="1"
       y2="0"
       gradientUnits="userSpaceOnUse"
       gradientTransform="matrix(37.387819,0,0,0.05172734,679.89005,199.13969)"
       spreadMethod="pad"
       id="linearGradient2">
      <stop
         style="stop-opacity:1;stop-color:#404441"
         offset="0"
         id="stop1" />
      <stop
         style="stop-opacity:1;stop-color:#404441"
         offset="1"
         id="stop2" />
    </linearGradient>
    <clipPath
       clipPathUnits="userSpaceOnUse"
       id="clipPath2">
      <path
         d="M 0,0 H 6000 V 3178.125 H 0 Z"
         transform="matrix(0.02666667,0,0,0.02666667,590.31499,222.43916)"
         clip-rule="evenodd"
         id="path2" />
    </clipPath>
    <linearGradient
       x1="0"
       y1="0"
       x2="1"
       y2="0"
       gradientUnits="userSpaceOnUse"
       gradientTransform="matrix(20.000001,-4.1364423e-8,4.1364423e-8,20.000001,53.786216,-88.277227)"
       spreadMethod="pad"
       id="linearGradient4">
      <stop
         style="stop-opacity:1;stop-color:#404441"
         offset="0"
         id="stop3" />
      <stop
         style="stop-opacity:1;stop-color:#404441"
         offset="1"
         id="stop4" />
    </linearGradient>
    <clipPath
       clipPathUnits="userSpaceOnUse"
       id="clipPath4">
      <path
         d="m -5917.9873,-6734.7021 14999.9853,20.7529 -20.7529,14999.9853 -14999.9853,-20.7529 z"
         transform="matrix(0.0413333,-5.7186027e-5,5.7186027e-5,0.0413333,-75.004946,-41.970995)"
         id="path4" />
    </clipPath>
    <clipPath
       clipPathUnits="userSpaceOnUse"
       id="clipPath5">
      <path
         d="M 0,0 H 6000 V 3178.125 H 0 Z"
         transform="matrix(0.31999999,0,0,0.31999999,-494.66667,-239.94661)"
         id="path5" />
    </clipPath>
    <clipPath
       clipPathUnits="userSpaceOnUse"
       id="clipPath6">
      <path
         d="M 0,0 H 6000 V 3178.125 H 0 Z"
         transform="matrix(0.31999999,0,0,0.31999999,-494.66667,-239.94661)"
         id="path6" />
    </clipPath>
    <clipPath
       clipPathUnits="userSpaceOnUse"
       id="clipPath7">
      <path
         d="M 0,0 H 6000 V 3178.125 H 0 Z"
         transform="matrix(0.31999999,0,0,0.31999999,-494.66667,-239.94661)"
         id="path7" />
    </clipPath>
  </defs>
  <sodipodi:namedview
     id="namedview1"
     pagecolor="#ffffff"
     bordercolor="#000000"
     borderopacity="0.25"
     inkscape:showpageshadow="2"
     inkscape:pageopacity="0.0"
     inkscape:pagecheckerboard="0"
     inkscape:deskcolor="#d1d1d1">
    <inkscape:page
       x="0"
       y="0"
       inkscape:label="1"
       id="page1"
       width="534.66669"
       height="172"
       margin="0"
       bleed="0" />
  </sodipodi:namedview>
  <g
     id="g1"
     inkscape:groupmode="layer"
     inkscape:label="1">
    <g
       id="g12">
      <path
         d="m 638.66779,249.58415 37.38781,0.0517"
         style="fill:none;stroke:url(#linearGradient2);stroke-width:2.5;stroke-linecap:butt;stroke-linejoin:miter;stroke-miterlimit:10;stroke-dasharray:none;stroke-opacity:1"
         transform="matrix(12,0,0,12,-7578.4465,-2909.2165)"
         clip-path="url(#clipPath2)"
         id="path8" />
      <g
         clip-path="url(#clipPath7)"
         id="g11">
        <g
           clip-path="url(#clipPath6)"
           id="g10">
          <g
             clip-path="url(#clipPath5)"
             id="g9">
            <path
               d="M 10,0 C 10.000001,0.32751232 9.98395,0.65423608 9.951847,0.98017132 9.9197454,1.3061066 9.871747,1.6296837 9.8078527,1.9509029 9.7439575,2.2721221 9.6644745,2.5894368 9.5694036,2.9028466 9.4743309,3.2162561 9.3641281,3.5242519 9.2387943,3.8268337 9.1134615,4.129416 8.9736004,4.425127 8.819212,4.7139668 8.6648245,5.0028071 8.4966516,5.2833853 8.3146944,5.5557017 8.1327391,5.8280182 7.9378757,6.0907621 7.7301044,6.3439331 7.5223327,6.5971031 7.3026538,6.8394814 7.0710673,7.0710673 6.8394814,7.3026538 6.5971031,7.5223327 6.3439331,7.7301044 6.0907621,7.9378762 5.8280182,8.13274 5.5557017,8.3146954 5.2833853,8.4966516 5.0028071,8.6648245 4.7139668,8.819212 4.425127,8.9736004 4.129416,9.1134615 3.8268337,9.2387943 3.5242519,9.3641281 3.2162561,9.4743309 2.9028466,9.5694027 2.5894368,9.6644745 2.2721221,9.7439575 1.9509029,9.8078527 1.6296837,9.871747 1.3061066,9.9197454 0.98017132,9.9518471 0.65423608,9.9839487 0.32751232,10 0,10 -0.32751232,10 -0.65423608,9.9839487 -0.98017132,9.9518471 -1.3061066,9.9197454 -1.6296837,9.871747 -1.9509029,9.8078527 -2.2721221,9.7439575 -2.5894368,9.6644745 -2.9028466,9.5694036 -3.2162561,9.4743309 -3.5242519,9.3641281 -3.8268337,9.2387943 -4.129416,9.1134615 -4.425127,8.9736004 -4.7139668,8.819212 -5.0028071,8.6648245 -5.2833853,8.4966516 -5.5557017,8.3146944 -5.8280182,8.1327391 -6.0907621,7.9378757 -6.3439331,7.7301044 -6.5971031,7.5223327 -6.8394814,7.3026538 -7.0710673,7.0710673 -7.3026538,6.8394814 -7.5223327,6.5971031 -7.7301044,6.3439331 -7.9378762,6.0907621 -8.13274,5.8280182 -8.3146954,5.5557017 -8.4966516,5.2833853 -8.6648245,5.0028071 -8.819212,4.7139668 -8.9736004,4.425127 -9.1134615,4.129416 -9.2387943,3.8268337 -9.3641281,3.5242519 -9.4743309,3.2162561 -9.5694027,2.9028466 -9.6644745,2.5894368 -9.7439575,2.2721221 -9.8078527,1.9509029 -9.871747,1.6296837 -9.9197454,1.3061066 -9.9518471,0.98017132 -9.9839497,0.65423608 -10.000001,0.32751232 -10,0 c -10e-7,-0.32751232 0.01605,-0.65423608 0.048153,-0.98017132 0.032102,-0.32593528 0.0801,-0.64951238 0.1439944,-0.97073158 0.063895,-0.3212192 0.1433782,-0.6385339 0.2384491,-0.9519437 0.095073,-0.3134095 0.2052755,-0.6214053 0.3306093,-0.9239871 0.1253328,-0.3025823 0.2651939,-0.5982933 0.4195823,-0.8871331 0.1543875,-0.2888403 0.3225604,-0.5694185 0.5045176,-0.8417349 0.1819553,-0.2723165 0.3768187,-0.5350604 0.58459,-0.7882314 0.2077717,-0.25317 0.4274506,-0.4955483 0.6590371,-0.7271342 0.2315859,-0.2315865 0.4739642,-0.4512654 0.7271342,-0.6590371 0.253171,-0.2077718 0.5159149,-0.4026356 0.7882314,-0.584591 0.2723164,-0.1819562 0.5528946,-0.3501291 0.8417349,-0.5045166 0.2888398,-0.1543884 0.5845508,-0.2942495 0.8871331,-0.4195823 0.3025818,-0.1253338 0.6105776,-0.2355366 0.9239871,-0.3306084 0.3134098,-0.095072 0.6307245,-0.1745548 0.9519437,-0.23845 0.3212192,-0.063894 0.6447963,-0.1118927 0.97073158,-0.1439944 C -0.65423608,-9.9839487 -0.32751232,-10 0,-10 c 0.32751232,0 0.65423608,0.016051 0.98017132,0.048153 0.32593528,0.032102 0.64951238,0.0801 0.97073158,0.1439944 0.3212192,0.063895 0.6385339,0.1433782 0.9519437,0.2384491 0.3134095,0.095073 0.6214053,0.2052755 0.9239871,0.3306093 0.3025823,0.1253328 0.5982933,0.2651939 0.8871331,0.4195823 0.2888403,0.1543875 0.5694185,0.3225604 0.8417349,0.5045176 0.2723165,0.1819553 0.5350604,0.3768187 0.7882314,0.58459 0.25317,0.2077717 0.4955483,0.4274506 0.7271342,0.6590371 0.2315865,0.2315859 0.4512654,0.4739642 0.6590371,0.7271342 0.2077718,0.253171 0.4026356,0.5159149 0.584591,0.7882314 0.1819562,0.2723164 0.3501291,0.5528946 0.5045166,0.8417349 0.1543884,0.2888398 0.2942495,0.5845508 0.4195823,0.8871331 0.1253338,0.3025818 0.2355366,0.6105776 0.3306084,0.9239871 0.095072,0.3134098 0.1745548,0.6307245 0.23845,0.9519437 0.063894,0.3212192 0.1118927,0.6447963 0.1439944,0.97073158 C 9.9839497,-0.65423608 10.000001,-0.32751232 10,0 Z"
               style="fill:url(#linearGradient4);fill-opacity:1;fill-rule:nonzero;stroke:#404441;stroke-width:2;stroke-linecap:butt;stroke-linejoin:miter;stroke-miterlimit:10;stroke-dasharray:none;stroke-opacity:1"
               transform="matrix(7.741927,0.01071122,-0.01071122,7.741927,85.566589,85.793159)"
               clip-path="url(#clipPath4)"
               id="path9" />
          </g>
        </g>
      </g>
    </g>
  </g>
</svg>
